<svg width="148" height="105" viewBox="0 0 148 105" fill="none" xmlns="http://www.w3.org/2000/svg">
<path fill-rule="evenodd" clip-rule="evenodd" d="M100.929 21.121C99.2195 21.3975 97.2637 21.8944 95.7293 22.4424C94.8013 22.7741 84.5595 27.8187 72.9697 33.6529C61.3801 39.4871 51.6431 44.2605 51.3322 44.2605C51.0212 44.2605 49.4237 43.4825 47.7824 42.532L44.7983 40.8033L41.316 42.5919C39.4007 43.5755 37.7855 44.4177 37.7261 44.4635C37.6668 44.5093 38.6191 45.6161 39.842 46.9231C41.0646 48.23 42.3083 49.8338 42.6052 50.4869C43.7471 52.9994 45.5346 53.9398 48.6041 53.6432C53.0811 53.2108 63.1218 51.2954 69.135 49.727L71.3981 49.1367L73.1851 44.8482L74.9721 40.5597L82.0315 37.044C85.9143 35.1105 89.2996 33.4652 89.5548 33.3877C90.1376 33.2107 91.0423 34.0894 91.0423 34.8329C91.0423 35.1413 90.2227 36.9956 89.221 38.9536C88.2193 40.9115 87.3997 42.5712 87.3997 42.6417C87.3997 43.1384 106.518 32.9089 110.687 30.1813C113.236 28.5135 115.5 26.6034 115.5 26.1202C115.5 25.2466 112.744 22.9224 111.199 22.4933C110.809 22.3851 109.454 22.9846 106.953 24.3716C104.932 25.4916 103.045 26.4084 102.76 26.4084C102.476 26.4084 102.051 26.0845 101.816 25.6886C101.433 25.0416 101.43 24.9014 101.784 24.3036C102 23.9379 103.131 23.1314 104.296 22.5118C105.907 21.6555 106.303 21.3364 105.949 21.1818C105.472 20.973 102.097 20.9324 100.929 21.121ZM67.6774 24.4519L65.2577 25.889L68.9784 27.7646C71.0247 28.7963 72.9376 29.7004 73.2293 29.7738C73.6745 29.8861 81.0737 26.462 81.7487 25.8317C81.8605 25.7272 79.4603 25.0914 76.4148 24.4188C73.3696 23.7462 70.7021 23.155 70.4875 23.1052C70.2728 23.0557 69.0083 23.6615 67.6774 24.4519ZM34.7766 38.0874C33.5246 38.7938 32.5 39.4675 32.5 39.5847C32.5003 39.8539 34.9952 42.2441 35.2804 42.2478C35.6982 42.2533 41.3464 39.2568 41.3464 39.0293C41.3464 38.7462 37.8497 36.7684 37.385 36.7888C37.2026 36.7966 36.0289 37.3811 34.7766 38.0874ZM81.6311 40.5787L77.033 42.9032L75.9964 45.3815C71.5894 55.9159 69.1631 61.8949 69.2547 61.996C69.314 62.0617 70.879 61.3104 72.7326 60.3271L76.1026 58.5387L78.4339 53.9459C79.7158 51.4195 81.8004 47.3322 83.0662 44.8629C85.378 40.3532 86.43 38.1963 86.2991 38.2343C86.2606 38.2452 84.1598 39.3005 81.6311 40.5787Z" fill="white"/>
<path d="M0.0165547 100L5.57855 87.4H9.08855L14.6686 100H10.9606L6.60456 89.146H8.00855L3.65255 100H0.0165547ZM3.05855 97.552L3.97655 94.924H10.1326L11.0506 97.552H3.05855ZM17.4076 100L13.3936 90.244H16.9036L20.1076 98.398H18.3436L21.7096 90.244H24.9676L20.9356 100H17.4076ZM25.5517 100V90.244H28.9717V100H25.5517ZM27.2617 89.164C26.6377 89.164 26.1337 88.99 25.7497 88.642C25.3657 88.294 25.1737 87.862 25.1737 87.346C25.1737 86.83 25.3657 86.398 25.7497 86.05C26.1337 85.702 26.6377 85.528 27.2617 85.528C27.8857 85.528 28.3897 85.696 28.7737 86.032C29.1577 86.356 29.3497 86.776 29.3497 87.292C29.3497 87.832 29.1577 88.282 28.7737 88.642C28.4017 88.99 27.8977 89.164 27.2617 89.164ZM36.8523 100V98.182L36.6183 97.732V94.384C36.6183 93.844 36.4503 93.43 36.1143 93.142C35.7903 92.842 35.2683 92.692 34.5483 92.692C34.0803 92.692 33.6063 92.77 33.1263 92.926C32.6463 93.07 32.2383 93.274 31.9023 93.538L30.7503 91.216C31.3023 90.856 31.9623 90.58 32.7303 90.388C33.5103 90.184 34.2843 90.082 35.0523 90.082C36.6363 90.082 37.8603 90.448 38.7243 91.18C39.6003 91.9 40.0383 93.034 40.0383 94.582V100H36.8523ZM33.9723 100.162C33.1923 100.162 32.5323 100.03 31.9923 99.766C31.4523 99.502 31.0383 99.142 30.7503 98.686C30.4743 98.23 30.3363 97.72 30.3363 97.156C30.3363 96.556 30.4863 96.04 30.7863 95.608C31.0983 95.164 31.5723 94.828 32.2083 94.6C32.8443 94.36 33.6663 94.24 34.6743 94.24H36.9783V96.022H35.1423C34.5903 96.022 34.2003 96.112 33.9723 96.292C33.7563 96.472 33.6483 96.712 33.6483 97.012C33.6483 97.312 33.7623 97.552 33.9903 97.732C34.2183 97.912 34.5303 98.002 34.9263 98.002C35.2983 98.002 35.6343 97.912 35.9343 97.732C36.2463 97.54 36.4743 97.252 36.6183 96.868L37.0863 98.128C36.9063 98.8 36.5523 99.31 36.0243 99.658C35.5083 99.994 34.8243 100.162 33.9723 100.162ZM46.253 100.162C45.005 100.162 44.033 99.856 43.337 99.244C42.641 98.62 42.293 97.684 42.293 96.436V88.066H45.713V96.4C45.713 96.748 45.809 97.024 46.001 97.228C46.193 97.42 46.439 97.516 46.739 97.516C47.147 97.516 47.495 97.414 47.783 97.21L48.629 99.604C48.341 99.796 47.987 99.934 47.567 100.018C47.147 100.114 46.709 100.162 46.253 100.162ZM40.871 93.16V90.604H47.945V93.16H40.871ZM54.2626 100.162C53.1946 100.162 52.2466 99.946 51.4186 99.514C50.5906 99.082 49.9366 98.488 49.4566 97.732C48.9886 96.964 48.7546 96.088 48.7546 95.104C48.7546 94.12 48.9886 93.25 49.4566 92.494C49.9366 91.738 50.5906 91.15 51.4186 90.73C52.2466 90.298 53.1946 90.082 54.2626 90.082C55.3306 90.082 56.2786 90.298 57.1066 90.73C57.9466 91.15 58.6006 91.738 59.0686 92.494C59.5366 93.25 59.7706 94.12 59.7706 95.104C59.7706 96.088 59.5366 96.964 59.0686 97.732C58.6006 98.488 57.9466 99.082 57.1066 99.514C56.2786 99.946 55.3306 100.162 54.2626 100.162ZM54.2626 97.444C54.6586 97.444 55.0066 97.354 55.3066 97.174C55.6186 96.994 55.8646 96.73 56.0446 96.382C56.2246 96.022 56.3146 95.596 56.3146 95.104C56.3146 94.612 56.2246 94.198 56.0446 93.862C55.8646 93.514 55.6186 93.25 55.3066 93.07C55.0066 92.89 54.6586 92.8 54.2626 92.8C53.8786 92.8 53.5306 92.89 53.2186 93.07C52.9186 93.25 52.6726 93.514 52.4806 93.862C52.3006 94.198 52.2106 94.612 52.2106 95.104C52.2106 95.596 52.3006 96.022 52.4806 96.382C52.6726 96.73 52.9186 96.994 53.2186 97.174C53.5306 97.354 53.8786 97.444 54.2626 97.444ZM61.0548 100V90.244H64.3128V93.088L63.8268 92.278C64.1148 91.546 64.5828 91 65.2308 90.64C65.8788 90.268 66.6648 90.082 67.5888 90.082V93.16C67.4328 93.136 67.2948 93.124 67.1748 93.124C67.0668 93.112 66.9468 93.106 66.8148 93.106C66.1188 93.106 65.5548 93.298 65.1228 93.682C64.6908 94.054 64.4748 94.666 64.4748 95.518V100H61.0548ZM77.9216 100.162C77.0336 100.162 76.2236 99.958 75.4916 99.55C74.7716 99.13 74.1956 98.548 73.7636 97.804C73.3316 97.048 73.1156 96.148 73.1156 95.104C73.1156 94.072 73.3316 93.184 73.7636 92.44C74.1956 91.684 74.7716 91.102 75.4916 90.694C76.2236 90.286 77.0336 90.082 77.9216 90.082C78.7616 90.082 79.4696 90.262 80.0456 90.622C80.6336 90.982 81.0776 91.534 81.3776 92.278C81.6776 93.022 81.8276 93.964 81.8276 95.104C81.8276 96.268 81.6836 97.222 81.3956 97.966C81.1076 98.71 80.6756 99.262 80.0996 99.622C79.5236 99.982 78.7976 100.162 77.9216 100.162ZM78.6416 97.444C79.0256 97.444 79.3676 97.354 79.6676 97.174C79.9796 96.994 80.2256 96.73 80.4056 96.382C80.5856 96.022 80.6756 95.596 80.6756 95.104C80.6756 94.612 80.5856 94.198 80.4056 93.862C80.2256 93.514 79.9796 93.25 79.6676 93.07C79.3676 92.89 79.0256 92.8 78.6416 92.8C78.2456 92.8 77.8916 92.89 77.5796 93.07C77.2796 93.25 77.0396 93.514 76.8596 93.862C76.6796 94.198 76.5896 94.612 76.5896 95.104C76.5896 95.596 76.6796 96.022 76.8596 96.382C77.0396 96.73 77.2796 96.994 77.5796 97.174C77.8916 97.354 78.2456 97.444 78.6416 97.444ZM80.7836 100V98.326L80.8016 95.104L80.6216 91.882V86.644H84.0416V100H80.7836ZM91.0539 100.162C89.9019 100.162 88.8939 99.946 88.0299 99.514C87.1779 99.07 86.5119 98.47 86.0319 97.714C85.5639 96.946 85.3299 96.076 85.3299 95.104C85.3299 94.132 85.5579 93.268 86.0139 92.512C86.4819 91.744 87.1239 91.15 87.9399 90.73C88.7559 90.298 89.6739 90.082 90.6939 90.082C91.6539 90.082 92.5299 90.28 93.3219 90.676C94.1139 91.06 94.7439 91.63 95.2119 92.386C95.6799 93.142 95.9139 94.06 95.9139 95.14C95.9139 95.26 95.9079 95.398 95.8959 95.554C95.8839 95.71 95.8719 95.854 95.8599 95.986H88.1379V94.186H94.0419L92.7459 94.69C92.7579 94.246 92.6739 93.862 92.4939 93.538C92.3259 93.214 92.0859 92.962 91.7739 92.782C91.4739 92.602 91.1199 92.512 90.7119 92.512C90.3039 92.512 89.9439 92.602 89.6319 92.782C89.3319 92.962 89.0979 93.22 88.9299 93.556C88.7619 93.88 88.6779 94.264 88.6779 94.708V95.23C88.6779 95.71 88.7739 96.124 88.9659 96.472C89.1699 96.82 89.4579 97.09 89.8299 97.282C90.2019 97.462 90.6459 97.552 91.1619 97.552C91.6419 97.552 92.0499 97.486 92.3859 97.354C92.7339 97.21 93.0759 96.994 93.4119 96.706L95.2119 98.578C94.7439 99.094 94.1679 99.49 93.4839 99.766C92.7999 100.03 91.9899 100.162 91.0539 100.162ZM97.1908 100V86.644H100.611V100H97.1908ZM102.533 100V90.244H105.953V100H102.533ZM104.243 89.164C103.619 89.164 103.115 88.99 102.731 88.642C102.347 88.294 102.155 87.862 102.155 87.346C102.155 86.83 102.347 86.398 102.731 86.05C103.115 85.702 103.619 85.528 104.243 85.528C104.867 85.528 105.371 85.696 105.755 86.032C106.139 86.356 106.331 86.776 106.331 87.292C106.331 87.832 106.139 88.282 105.755 88.642C105.383 88.99 104.879 89.164 104.243 89.164ZM110.594 100L106.58 90.244H110.09L113.294 98.398H111.53L114.896 90.244H118.154L114.122 100H110.594ZM123.586 100.162C122.434 100.162 121.426 99.946 120.562 99.514C119.71 99.07 119.044 98.47 118.564 97.714C118.096 96.946 117.862 96.076 117.862 95.104C117.862 94.132 118.09 93.268 118.546 92.512C119.014 91.744 119.656 91.15 120.472 90.73C121.288 90.298 122.206 90.082 123.226 90.082C124.186 90.082 125.062 90.28 125.854 90.676C126.646 91.06 127.276 91.63 127.744 92.386C128.212 93.142 128.446 94.06 128.446 95.14C128.446 95.26 128.44 95.398 128.428 95.554C128.416 95.71 128.404 95.854 128.392 95.986H120.67V94.186H126.574L125.278 94.69C125.29 94.246 125.206 93.862 125.026 93.538C124.858 93.214 124.618 92.962 124.306 92.782C124.006 92.602 123.652 92.512 123.244 92.512C122.836 92.512 122.476 92.602 122.164 92.782C121.864 92.962 121.63 93.22 121.462 93.556C121.294 93.88 121.21 94.264 121.21 94.708V95.23C121.21 95.71 121.306 96.124 121.498 96.472C121.702 96.82 121.99 97.09 122.362 97.282C122.734 97.462 123.178 97.552 123.694 97.552C124.174 97.552 124.582 97.486 124.918 97.354C125.266 97.21 125.608 96.994 125.944 96.706L127.744 98.578C127.276 99.094 126.7 99.49 126.016 99.766C125.332 100.03 124.522 100.162 123.586 100.162ZM129.723 100V90.244H132.981V93.088L132.495 92.278C132.783 91.546 133.251 91 133.899 90.64C134.547 90.268 135.333 90.082 136.257 90.082V93.16C136.101 93.136 135.963 93.124 135.843 93.124C135.735 93.112 135.615 93.106 135.483 93.106C134.787 93.106 134.223 93.298 133.791 93.682C133.359 94.054 133.143 94.666 133.143 95.518V100H129.723ZM139.341 103.654C138.825 103.654 138.303 103.57 137.775 103.402C137.259 103.246 136.839 103.036 136.515 102.772L137.703 100.378C137.907 100.558 138.141 100.696 138.405 100.792C138.681 100.9 138.951 100.954 139.215 100.954C139.587 100.954 139.881 100.87 140.097 100.702C140.313 100.534 140.499 100.27 140.655 99.91L141.105 98.776L141.375 98.434L144.687 90.244H147.945L143.733 100.396C143.397 101.236 143.007 101.89 142.563 102.358C142.131 102.838 141.645 103.174 141.105 103.366C140.577 103.558 139.989 103.654 139.341 103.654ZM140.673 100.414L136.371 90.244H139.881L143.049 98.128L140.673 100.414Z" fill="white"/>
</svg>
