<svg width="24" height="24" viewBox="0 0 24 24" fill="none" xmlns="http://www.w3.org/2000/svg">
<path d="M5.14282 5H22.2857L20.5714 15.2857H6.85711L5.14282 5Z" stroke="black" stroke-width="1.5" stroke-linecap="round" stroke-linejoin="round"/>
<path d="M8.57145 21C9.20263 21 9.7143 20.4883 9.7143 19.8572C9.7143 19.226 9.20263 18.7143 8.57145 18.7143C7.94026 18.7143 7.42859 19.226 7.42859 19.8572C7.42859 20.4883 7.94026 21 8.57145 21Z" stroke="black" stroke-width="1.5" stroke-linecap="round" stroke-linejoin="round"/>
<path d="M18.8571 21C19.4883 21 19.9999 20.4883 19.9999 19.8572C19.9999 19.226 19.4883 18.7143 18.8571 18.7143C18.2259 18.7143 17.7142 19.226 17.7142 19.8572C17.7142 20.4883 18.2259 21 18.8571 21Z" stroke="black" stroke-width="1.5" stroke-linecap="round" stroke-linejoin="round"/>
<path d="M5.1428 5H1.71423" stroke="black" stroke-width="1.5" stroke-linecap="round" stroke-linejoin="round"/>
</svg>
